<mxfile host="app.diagrams.net" modified="2022-05-17T19:48:50.881Z" agent="5.0 (Windows NT 10.0; Win64; x64) AppleWebKit/537.36 (KHTML, like Gecko) Chrome/101.0.4951.67 Safari/537.36" etag="PJM2mDw9DsuMghSVsuNH" version="17.4.5" type="github">
  <diagram id="Nb12M01iGxBTq1MyVmrm" name="Page-1">
    <mxGraphModel dx="1038" dy="547" grid="1" gridSize="10" guides="1" tooltips="1" connect="1" arrows="1" fold="1" page="1" pageScale="1" pageWidth="850" pageHeight="1100" math="0" shadow="0">
      <root>
        <mxCell id="0" />
        <mxCell id="1" parent="0" />
        <mxCell id="fkp4_uhdzthaPoLJJq2W-1" value="Revisão acerca das principais abordagens fenomenolôgicas" style="rounded=1;whiteSpace=wrap;html=1;fillColor=#dae8fc;strokeColor=#6c8ebf;" vertex="1" parent="1">
          <mxGeometry x="330" y="220" width="100" height="80" as="geometry" />
        </mxCell>
        <mxCell id="fkp4_uhdzthaPoLJJq2W-2" value="" style="shape=flexArrow;endArrow=classic;html=1;rounded=0;" edge="1" parent="1">
          <mxGeometry width="50" height="50" relative="1" as="geometry">
            <mxPoint x="440" y="260" as="sourcePoint" />
            <mxPoint x="480" y="260" as="targetPoint" />
          </mxGeometry>
        </mxCell>
        <mxCell id="fkp4_uhdzthaPoLJJq2W-3" value="MIE" style="rounded=1;whiteSpace=wrap;html=1;fillColor=#dae8fc;strokeColor=#6c8ebf;" vertex="1" parent="1">
          <mxGeometry x="490" y="210" width="80" height="40" as="geometry" />
        </mxCell>
        <mxCell id="fkp4_uhdzthaPoLJJq2W-5" value="DLE" style="rounded=1;whiteSpace=wrap;html=1;fillColor=#dae8fc;strokeColor=#6c8ebf;" vertex="1" parent="1">
          <mxGeometry x="490" y="260" width="80" height="40" as="geometry" />
        </mxCell>
        <mxCell id="fkp4_uhdzthaPoLJJq2W-6" value="" style="shape=flexArrow;endArrow=classic;html=1;rounded=0;" edge="1" parent="1">
          <mxGeometry width="50" height="50" relative="1" as="geometry">
            <mxPoint x="539.5" y="310" as="sourcePoint" />
            <mxPoint x="539.5" y="340" as="targetPoint" />
          </mxGeometry>
        </mxCell>
        <mxCell id="fkp4_uhdzthaPoLJJq2W-20" style="edgeStyle=orthogonalEdgeStyle;rounded=0;orthogonalLoop=1;jettySize=auto;html=1;exitX=1;exitY=0.5;exitDx=0;exitDy=0;entryX=0;entryY=0.5;entryDx=0;entryDy=0;" edge="1" parent="1" source="fkp4_uhdzthaPoLJJq2W-7" target="fkp4_uhdzthaPoLJJq2W-11">
          <mxGeometry relative="1" as="geometry" />
        </mxCell>
        <mxCell id="fkp4_uhdzthaPoLJJq2W-7" value="Avaliação cronológica dos principais modelos&amp;nbsp;" style="rounded=1;whiteSpace=wrap;html=1;fillColor=#dae8fc;strokeColor=#6c8ebf;" vertex="1" parent="1">
          <mxGeometry x="490" y="350" width="100" height="80" as="geometry" />
        </mxCell>
        <mxCell id="fkp4_uhdzthaPoLJJq2W-8" value="" style="shape=flexArrow;endArrow=classic;html=1;rounded=0;" edge="1" parent="1">
          <mxGeometry width="50" height="50" relative="1" as="geometry">
            <mxPoint x="480" y="390" as="sourcePoint" />
            <mxPoint x="440" y="389.5" as="targetPoint" />
          </mxGeometry>
        </mxCell>
        <mxCell id="fkp4_uhdzthaPoLJJq2W-21" style="edgeStyle=orthogonalEdgeStyle;rounded=0;orthogonalLoop=1;jettySize=auto;html=1;entryX=0.5;entryY=0;entryDx=0;entryDy=0;" edge="1" parent="1" source="fkp4_uhdzthaPoLJJq2W-10" target="fkp4_uhdzthaPoLJJq2W-15">
          <mxGeometry relative="1" as="geometry" />
        </mxCell>
        <mxCell id="fkp4_uhdzthaPoLJJq2W-22" style="edgeStyle=orthogonalEdgeStyle;rounded=0;orthogonalLoop=1;jettySize=auto;html=1;exitX=0.5;exitY=1;exitDx=0;exitDy=0;entryX=0.5;entryY=0;entryDx=0;entryDy=0;" edge="1" parent="1" source="fkp4_uhdzthaPoLJJq2W-10" target="fkp4_uhdzthaPoLJJq2W-17">
          <mxGeometry relative="1" as="geometry" />
        </mxCell>
        <mxCell id="fkp4_uhdzthaPoLJJq2W-10" value="Implementação e simulação dos modelos" style="rounded=1;whiteSpace=wrap;html=1;fillColor=#dae8fc;strokeColor=#6c8ebf;" vertex="1" parent="1">
          <mxGeometry x="330" y="350" width="100" height="80" as="geometry" />
        </mxCell>
        <mxCell id="fkp4_uhdzthaPoLJJq2W-11" value="Abordagen Interpolativa" style="text;html=1;strokeColor=none;fillColor=none;align=center;verticalAlign=middle;whiteSpace=wrap;rounded=0;" vertex="1" parent="1">
          <mxGeometry x="620" y="375" width="60" height="30" as="geometry" />
        </mxCell>
        <mxCell id="fkp4_uhdzthaPoLJJq2W-14" style="edgeStyle=orthogonalEdgeStyle;rounded=0;orthogonalLoop=1;jettySize=auto;html=1;entryX=0;entryY=0.5;entryDx=0;entryDy=0;" edge="1" parent="1" source="fkp4_uhdzthaPoLJJq2W-13" target="fkp4_uhdzthaPoLJJq2W-10">
          <mxGeometry relative="1" as="geometry" />
        </mxCell>
        <mxCell id="fkp4_uhdzthaPoLJJq2W-13" value="Dados Experimentais" style="text;html=1;strokeColor=none;fillColor=none;align=center;verticalAlign=middle;whiteSpace=wrap;rounded=0;" vertex="1" parent="1">
          <mxGeometry x="230" y="375" width="70" height="30" as="geometry" />
        </mxCell>
        <mxCell id="fkp4_uhdzthaPoLJJq2W-15" value="Análise da performance&lt;br&gt;dos modelos" style="rounded=1;whiteSpace=wrap;html=1;fillColor=#dae8fc;strokeColor=#6c8ebf;" vertex="1" parent="1">
          <mxGeometry x="330" y="480" width="100" height="80" as="geometry" />
        </mxCell>
        <mxCell id="fkp4_uhdzthaPoLJJq2W-17" value="Análise Residual" style="rounded=1;whiteSpace=wrap;html=1;fillColor=#dae8fc;strokeColor=#6c8ebf;" vertex="1" parent="1">
          <mxGeometry x="480" y="480" width="100" height="80" as="geometry" />
        </mxCell>
      </root>
    </mxGraphModel>
  </diagram>
</mxfile>
